<?xml version="1.0" encoding="iso-8859-1"?>
<!-- Uploaded to: SVG Repo, www.svgrepo.com, Generator: SVG Repo Mixer Tools -->
<!DOCTYPE svg PUBLIC "-//W3C//DTD SVG 1.1//EN" "http://www.w3.org/Graphics/SVG/1.1/DTD/svg11.dtd">
<svg fill="#000000" height="800px" width="800px" version="1.1" id="Capa_1" xmlns="http://www.w3.org/2000/svg" xmlns:xlink="http://www.w3.org/1999/xlink" 
	 viewBox="0 0 490 490" xml:space="preserve">
<path d="M401.429,138.072C401.429,87.386,327.772,0,244.999,0C162.227,0,88.571,87.386,88.571,138.072
	c0,28.955,22.279,47.996,56.096,59.273c0.001,0.081,0.006,0.155,0.006,0.237c0,6.944-2.673,9.929-8.722,16.014
	c-6.829,6.872-16.181,16.281-16.181,34.102c0,17.818,9.352,27.23,16.181,34.1c6.049,6.085,8.722,9.068,8.722,16.014
	c0,6.946-2.673,9.931-8.722,16.017c-6.829,6.871-16.181,16.281-16.181,34.103c0,17.818,9.352,27.229,16.181,34.1
	c6.049,6.086,8.722,9.07,8.722,16.016c0,6.947-2.675,9.93-8.724,16.017c-6.827,6.872-16.179,16.283-16.179,34.103
	c0,14.98,6.711,23.522,12.264,30.628c2.484,3.18,5.774,6.148,8.553,8.186c2.502,1.834,5.317,3.02,8.271,3.02
	c3.086,0,6.183-1.108,8.641-3.353c5.234-4.775,5.607-12.888,0.832-18.121c-1.416-1.554-2.818-2.968-4.179-4.334
	c-6.052-6.089-8.725-9.075-8.725-16.025c0-6.949,2.673-9.932,8.722-16.019c6.827-6.871,16.181-16.281,16.181-34.102
	c0-17.82-9.354-27.229-16.181-34.1c-6.049-6.087-8.722-9.07-8.722-16.017c0-6.948,2.673-9.932,8.722-16.019
	c6.827-6.871,16.181-16.281,16.181-34.101c0-17.817-9.354-27.228-16.181-34.099c-6.049-6.085-8.722-9.068-8.722-16.015
	c0-6.946,2.673-9.932,8.722-16.017c5.963-5.999,13.85-13.94,15.752-27.722c8.642,1.744,17.735,3.126,27.164,4.166
	c-1.311,1.648-2.985,3.374-5.068,5.471c-6.83,6.872-16.181,16.281-16.181,34.102c0,17.818,9.351,27.23,16.181,34.1
	c6.048,6.085,8.722,9.068,8.722,16.014c0,6.946-2.674,9.931-8.722,16.017c-6.83,6.871-16.181,16.281-16.181,34.103
	c0,17.818,9.351,27.229,16.181,34.1c6.048,6.086,8.722,9.07,8.722,16.016c0,6.947-2.677,9.93-8.724,16.017
	c-6.828,6.872-16.179,16.283-16.179,34.103c0,14.98,6.71,23.522,12.262,30.628c2.485,3.18,5.776,6.148,8.554,8.186
	c2.503,1.834,5.316,3.02,8.27,3.02c3.088,0,6.184-1.108,8.642-3.353c5.234-4.775,5.608-12.888,0.833-18.121
	c-1.417-1.554-2.819-2.968-4.181-4.334c-6.05-6.089-8.724-9.075-8.724-16.025c0-6.949,2.674-9.932,8.722-16.019
	c6.828-6.871,16.181-16.281,16.181-34.102c0-17.82-9.353-27.229-16.181-34.1c-6.048-6.087-8.722-9.07-8.722-16.017
	c0-6.948,2.674-9.932,8.722-16.019c6.828-6.871,16.181-16.281,16.181-34.101c0-17.817-9.353-27.228-16.181-34.099
	c-6.048-6.085-8.722-9.068-8.722-16.015c0-6.946,2.674-9.932,8.722-16.017c5-5.031,11.34-11.441,14.383-21.5
	c6.721,0.283,13.538,0.423,20.422,0.423c6.884,0,13.702-0.14,20.423-0.423c3.044,10.059,9.381,16.469,14.381,21.5
	c6.048,6.085,8.725,9.07,8.725,16.017c0,6.946-2.674,9.93-8.723,16.015c-6.829,6.87-16.179,16.281-16.179,34.099
	c0,17.819,9.35,27.229,16.177,34.101c6.048,6.087,8.725,9.07,8.725,16.019c0,6.946-2.674,9.93-8.725,16.017
	c-6.827,6.87-16.177,16.279-16.177,34.1c0,17.82,9.35,27.23,16.177,34.102c6.048,6.087,8.725,9.069,8.725,16.019
	c0,6.95-2.677,9.936-8.727,16.025c-1.358,1.366-2.765,2.78-4.18,4.334c-4.773,5.233-4.401,13.347,0.832,18.121
	c2.46,2.244,5.554,3.353,8.642,3.353c2.956,0,5.771-1.186,8.273-3.02c2.779-2.037,6.068-5.006,8.552-8.186
	c5.553-7.105,12.265-15.647,12.265-30.628c0-17.82-9.354-27.232-16.182-34.103c-6.048-6.087-8.722-9.069-8.722-16.017
	c0-6.945,2.674-9.93,8.722-16.016c6.828-6.872,16.182-16.282,16.182-34.1c0-17.821-9.354-27.232-16.182-34.103
	c-6.048-6.086-8.722-9.07-8.722-16.017c0-6.945,2.674-9.929,8.722-16.014c6.828-6.87,16.182-16.281,16.182-34.1
	c0-17.82-9.354-27.229-16.182-34.102c-2.084-2.097-3.756-3.822-5.068-5.471c9.431-1.04,18.523-2.422,27.165-4.166
	c1.903,13.781,9.787,21.723,15.75,27.722c6.048,6.085,8.724,9.07,8.724,16.017c0,6.946-2.674,9.93-8.722,16.015
	c-6.829,6.87-16.181,16.281-16.181,34.099c0,17.819,9.352,27.229,16.179,34.101c6.048,6.087,8.724,9.07,8.724,16.019
	c0,6.946-2.674,9.93-8.724,16.017c-6.827,6.87-16.179,16.279-16.179,34.1c0,17.82,9.352,27.23,16.179,34.102
	c6.048,6.087,8.724,9.069,8.724,16.019c0,6.95-2.676,9.936-8.727,16.025c-1.357,1.366-2.764,2.78-4.179,4.334
	c-4.775,5.233-4.403,13.347,0.832,18.121c2.459,2.244,5.554,3.353,8.641,3.353c2.957,0,5.77-1.186,8.273-3.02
	c2.778-2.037,6.068-5.006,8.552-8.186c5.551-7.105,12.264-15.647,12.264-30.628c0-17.82-9.353-27.232-16.181-34.103
	c-6.048-6.087-8.722-9.069-8.722-16.017c0-6.945,2.674-9.93,8.722-16.016c6.828-6.872,16.181-16.282,16.181-34.1
	c0-17.821-9.353-27.232-16.181-34.103c-6.048-6.086-8.722-9.07-8.722-16.017c0-6.945,2.674-9.929,8.722-16.014
	c6.828-6.87,16.181-16.281,16.181-34.1c0-17.82-9.353-27.229-16.181-34.102c-6.048-6.085-8.722-9.069-8.722-16.014
	c0-0.082,0.006-0.156,0.006-0.237C379.148,186.068,401.429,167.027,401.429,138.072z M244.999,41.003
	c-3.62,0-6.554-2.934-6.554-6.554s2.934-6.555,6.554-6.555c29.702,0,60.574,15.469,84.698,42.44
	c2.413,2.697,2.183,6.841-0.516,9.254c-1.25,1.119-2.81,1.669-4.366,1.669c-1.802,0-3.595-0.736-4.888-2.185
	C298.605,55.236,270.595,41.003,244.999,41.003z"/>
</svg>